<?xml version="1.0" standalone="no"?>
<!DOCTYPE svg PUBLIC "-//W3C//DTD SVG 20010904//EN"
 "http://www.w3.org/TR/2001/REC-SVG-20010904/DTD/svg10.dtd">
<svg version="1.0" xmlns="http://www.w3.org/2000/svg"
 width="240.000000pt" height="240.000000pt" viewBox="0 0 240.000000 240.000000"
 preserveAspectRatio="xMidYMid meet">
<metadata>
Created by potrace 1.11, written by Peter Selinger 2001-2013
</metadata>
<g transform="translate(0.000000,240.000000) scale(0.100000,-0.100000)"
fill="#000000" stroke="none">
<path d="M1065 2385 c-131 -28 -234 -82 -363 -189 -113 -95 -120 -103 -187
-220 -72 -124 -80 -143 -116 -281 -40 -157 -40 -263 0 -373 33 -91 85 -177
146 -243 42 -45 44 -46 49 -23 4 14 16 26 31 30 14 3 25 8 25 10 0 2 -20 22
-44 44 -49 45 -90 130 -100 203 -8 63 7 53 36 -25 30 -84 77 -130 159 -156 86
-27 121 -31 203 -21 98 12 137 41 183 132 32 64 36 81 36 149 0 42 -4 83 -10
90 -6 7 -16 30 -23 51 -17 53 -78 126 -143 171 -46 32 -67 39 -129 46 -65 8
-78 6 -124 -14 -28 -13 -66 -40 -86 -60 -51 -53 -100 -156 -107 -224 l-5 -57
-7 50 c-23 159 2 273 94 437 56 100 72 120 157 194 143 126 313 204 444 204
132 0 304 -78 446 -204 85 -74 101 -95 157 -194 91 -163 116 -280 94 -437 l-7
-50 -5 57 c-7 68 -56 171 -107 224 -20 20 -58 47 -86 60 -46 20 -59 22 -124
14 -62 -7 -83 -14 -130 -46 -68 -48 -136 -133 -159 -199 -9 -28 -17 -81 -17
-121 0 -62 4 -80 34 -139 54 -106 104 -135 240 -137 159 -2 264 59 308 180 29
78 44 88 36 25 -13 -101 -58 -171 -162 -255 -12 -10 -22 -29 -22 -42 0 -27
-16 -36 -63 -36 -22 0 -39 -8 -54 -27 -30 -34 -29 -44 8 -79 43 -40 109 -142
109 -169 0 -12 -8 -29 -18 -38 -16 -14 -93 -47 -111 -47 -3 0 -5 20 -3 44 5
60 -13 111 -48 136 -60 43 -89 13 -59 -62 10 -27 19 -53 19 -58 0 -21 -76 -47
-139 -48 -70 -2 -81 5 -81 51 0 15 -3 27 -8 27 -4 0 -6 19 -4 43 3 50 -16 91
-44 95 -32 5 -46 -22 -49 -95 -2 -38 -6 -80 -10 -95 -7 -27 -9 -28 -74 -26
-69 2 -128 20 -137 42 -3 7 4 35 15 62 22 57 14 84 -24 84 -50 0 -92 -85 -83
-166 4 -33 3 -35 -21 -29 -42 10 -112 46 -118 61 -7 20 46 111 100 170 26 28
47 56 47 61 0 5 -10 21 -21 35 -18 22 -26 25 -45 17 -13 -4 -44 -6 -69 -3 -54
6 -59 -8 -13 -32 18 -9 35 -18 36 -20 2 -1 -14 -27 -37 -56 -49 -66 -80 -133
-81 -175 0 -67 82 -122 218 -144 61 -10 78 -9 121 5 40 13 89 16 228 16 191
-1 213 -2 284 -21 37 -9 60 -9 124 4 43 9 82 14 87 11 4 -3 8 -20 8 -37 0 -18
7 -41 15 -51 8 -10 12 -23 9 -27 -11 -18 63 -8 101 14 35 20 41 28 46 67 4 25
10 61 14 80 31 163 26 370 -12 428 -13 22 -13 26 5 45 40 44 95 142 123 219
40 110 40 216 0 373 -17 62 -36 129 -44 148 -22 52 -126 229 -150 256 -45 50
-210 180 -265 209 -143 76 -311 105 -447 77z m-220 -855 c63 -44 117 -109 113
-140 -5 -40 -33 -35 -84 15 -72 71 -73 71 -135 14 -57 -52 -58 -53 -83 -43
-32 12 -17 55 40 120 65 75 84 79 149 34z m835 -40 c64 -76 71 -93 41 -110
-29 -15 -32 -14 -90 39 -62 57 -63 57 -135 -14 -51 -50 -79 -55 -84 -15 -3 31
42 88 107 136 70 51 89 47 161 -36z m33 -522 c-5 -7 -10 -24 -11 -37 -2 -35
-10 -38 -35 -12 -13 14 -18 25 -11 28 6 2 20 10 30 18 24 18 40 19 27 3z m102
-8 c3 -10 3 -34 0 -52 -7 -36 -14 -106 -19 -179 -1 -25 -6 -51 -10 -58 -4 -7
-3 -25 4 -41 9 -23 9 -34 -4 -59 -9 -17 -23 -31 -31 -31 -13 0 -15 23 -10 163
6 208 11 249 32 265 23 17 31 15 38 -8z"/>
<path d="M1137 1153 c-19 -3 -41 -21 -67 -55 -43 -54 -49 -78 -24 -102 23 -23
51 -20 90 11 l36 27 25 -32 c17 -23 33 -32 53 -32 37 0 41 16 32 110 -1 9 -15
30 -31 48 -30 32 -44 35 -114 25z"/>
<path d="M83 1051 c-72 -58 -77 -72 -59 -162 20 -101 62 -253 77 -281 7 -13
12 -25 12 -28 -1 -7 16 -51 33 -84 8 -16 14 -38 14 -48 0 -10 7 -21 16 -25 21
-8 88 13 105 34 26 31 4 227 -55 488 -18 81 -31 115 -47 128 -30 24 -40 22
-96 -22z m87 -181 c12 -36 25 -85 30 -110 4 -25 11 -56 14 -70 5 -20 18 -121
18 -140 1 -39 -4 -50 -21 -50 -16 0 -22 11 -31 58 -7 31 -18 73 -26 92 -7 19
-16 53 -18 75 -3 22 -10 55 -15 74 -17 54 -16 141 0 151 17 11 20 5 49 -80z"/>
<path d="M2072 1063 c-60 -86 -119 -248 -129 -353 -3 -36 -11 -72 -18 -80 -34
-40 -26 -109 16 -149 26 -24 95 -29 122 -9 31 23 127 410 127 513 0 76 -18
105 -65 105 -25 0 -38 -7 -53 -27z m12 -254 c-14 -63 -34 -149 -44 -192 -21
-88 -23 -92 -46 -83 -13 5 -14 9 -4 21 6 7 15 53 20 102 10 98 27 162 67 249
38 83 41 45 7 -97z"/>
<path d="M434 985 c-54 -55 -80 -172 -90 -409 -2 -49 -6 -91 -9 -94 -11 -11
-4 -50 11 -63 12 -10 29 -11 82 -1 76 13 89 24 97 91 3 25 17 80 30 121 29 86
33 181 11 251 -7 24 -19 63 -25 87 -11 39 -14 42 -47 42 -24 0 -43 -8 -60 -25z
m54 -144 c7 -21 12 -56 12 -77 0 -52 -42 -257 -55 -266 -5 -4 -22 -8 -36 -8
l-26 0 18 53 c9 28 25 106 34 172 25 183 32 198 53 126z"/>
<path d="M2341 755 c-52 -42 -92 -91 -165 -209 -51 -81 -55 -92 -50 -130 5
-34 4 -39 -7 -28 -7 6 -25 12 -40 12 -15 0 -60 13 -100 30 -80 32 -118 37
-152 18 -12 -7 -42 -13 -66 -13 -56 -1 -81 -29 -81 -92 0 -54 18 -90 64 -130
51 -45 98 -59 137 -39 29 15 33 14 57 -4 26 -21 67 -26 77 -10 3 5 14 10 23 9
14 0 13 -2 -3 -9 -27 -11 -61 -50 -70 -79 l-8 -25 -13 26 c-16 31 -106 78
-148 78 -43 -1 -144 -26 -162 -40 -11 -10 -14 -9 -14 7 0 49 -114 119 -235
143 -33 6 -80 17 -105 23 l-45 11 53 8 c64 10 96 29 112 69 24 58 -2 124 -61
154 -35 19 -273 19 -308 0 -62 -32 -88 -104 -58 -162 17 -32 69 -63 109 -64
12 0 -15 -12 -62 -25 -193 -57 -276 -108 -268 -166 5 -28 5 -28 -16 -9 -28 26
-101 51 -152 51 -23 0 -62 -11 -92 -26 -42 -21 -56 -35 -72 -69 -11 -24 -20
-49 -20 -54 0 -7 63 -11 190 -11 185 0 190 1 190 21 0 11 -4 29 -10 39 -9 18
-8 18 21 3 47 -24 156 -29 202 -10 l37 16 0 -35 0 -34 155 0 155 0 0 35 c0 41
-3 39 43 20 45 -19 110 -19 170 -1 44 13 46 13 37 -4 -27 -50 -25 -50 206 -50
l216 0 -5 23 c-7 28 10 51 48 63 48 16 58 12 95 -39 29 -39 40 -47 68 -47 l32
0 -15 38 c-17 42 -76 101 -118 120 l-28 12 27 23 c29 26 45 93 33 139 -6 24
-5 26 11 16 9 -6 28 -8 43 -5 34 9 114 73 160 130 36 44 38 50 35 107 l-3 61
-82 -95 c-45 -52 -92 -100 -103 -106 -27 -14 106 183 154 229 30 30 36 42 36
78 0 24 -3 43 -7 43 -5 0 -28 -16 -52 -35z m-1044 -296 c19 -17 16 -47 -6 -59
-11 -5 -59 -10 -106 -10 -93 0 -125 10 -125 39 0 39 44 52 154 45 38 -3 75 -9
83 -15z m609 -94 c4 -8 12 -15 20 -15 17 0 36 -34 28 -54 -5 -14 -8 -14 -28 0
-22 13 -46 53 -46 74 0 16 20 11 26 -5z m-75 -82 c31 -48 31 -50 -11 -28 -36
19 -60 52 -60 84 0 24 0 24 21 5 11 -10 34 -38 50 -61z m-618 30 c-13 -2 -35
-2 -50 0 -16 2 -5 4 22 4 28 0 40 -2 28 -4z m868 -3 c16 0 10 -80 -6 -87 -21
-7 -22 -6 -30 51 -7 44 -6 48 9 43 10 -4 22 -7 27 -7z m-967 -102 c-9 -23
-168 -88 -213 -88 -22 0 -41 5 -41 10 0 16 107 60 180 75 84 17 80 17 74 3z
m323 -36 c87 -37 95 -57 22 -50 -30 3 -72 14 -94 24 -22 10 -47 19 -56 20 -46
4 -68 15 -62 30 9 24 106 12 190 -24z"/>
<path d="M0 571 c0 -44 4 -91 10 -105 6 -17 6 -26 0 -26 -6 0 -10 -16 -10 -35
0 -39 1 -40 33 -22 39 21 67 50 67 68 0 20 -29 92 -40 99 -10 6 -44 82 -42 93
1 4 -3 7 -8 7 -6 0 -10 -33 -10 -79z"/>
<path d="M294 381 c-26 -16 -33 -17 -49 -5 -54 39 -205 -14 -205 -73 0 -16 -7
-27 -20 -30 -18 -5 -20 -14 -20 -114 0 -88 3 -111 15 -115 11 -5 12 -10 4 -26
-10 -19 -8 -20 48 -14 73 9 133 9 206 1 39 -5 57 -3 57 4 0 13 -70 58 -82 53
-5 -1 -8 2 -8 7 0 5 9 12 20 16 11 3 29 18 41 33 18 23 29 27 78 28 36 1 68 8
84 19 25 16 27 23 27 85 0 82 -19 111 -87 134 -59 20 -71 20 -109 -3z m90 -71
c22 -8 26 -16 26 -50 0 -43 -1 -43 -48 -34 -40 8 -62 59 -34 80 21 16 24 17
56 4z m-169 -8 c6 -4 24 -27 40 -52 l30 -45 -25 -27 -26 -28 -46 48 c-40 41
-68 80 -68 96 0 13 79 20 95 8z m-145 -122 c0 -5 9 -10 21 -10 18 0 58 -34 59
-50 0 -3 -13 -7 -29 -8 -22 -2 -36 6 -55 29 -30 35 -33 49 -11 49 8 0 15 -4
15 -10z"/>
<path d="M624 390 c-17 -5 -43 -21 -58 -35 -15 -14 -33 -25 -41 -25 -25 0 -29
-46 -6 -78 38 -54 134 -64 252 -26 82 26 83 81 3 137 -45 31 -102 41 -150 27z
m99 -84 c17 -13 13 -15 -36 -21 -30 -4 -65 -4 -78 1 -24 7 -24 7 6 20 39 17
85 17 108 0z"/>
<path d="M2244 279 c-47 -13 -75 -49 -77 -99 l-2 -43 90 -29 c50 -16 102 -33
117 -38 l27 -8 0 99 0 99 -29 15 c-32 16 -78 18 -126 4z m123 -93 c15 -13 25
-27 22 -30 -4 -4 -39 4 -80 17 -74 24 -76 35 -7 36 25 1 46 -7 65 -23z"/>
</g>
</svg>
